<svg id="Layer_1" data-name="Layer 1" xmlns="http://www.w3.org/2000/svg" viewBox="0 0 400 400"><defs><style>.cls-1{fill:#ffd53d;}.cls-2{fill:#ffd53f;}.cls-3{fill:#ffd53e;}</style></defs><title>ShineNewLogo</title><path class="cls-1" d="M200.38,85.92A114,114,0,1,1,86.13,199.42c.15-62.8,51.18-113.54,114.25-113.5"/><path class="cls-2" d="M128.62,91.82a179.87,179.87,0,0,0-36.83,36.79l-33-70.17,69.83,33.38"/><path class="cls-3" d="M341.26,59l-33.09,69.58a168.51,168.51,0,0,0-36.78-36.76l69.14-32.91.73.09"/><path class="cls-3" d="M58.78,341.21c11.17-23.62,22-46.56,32.84-69.38,5.75,6.46,11.19,13.14,17.26,19.22s12.78,11.55,19.29,17.35L58.78,341.21"/><path class="cls-3" d="M174.1,72.9C182.76,48.53,191.28,24.54,200,0l25.89,72.9a189,189,0,0,0-51.78,0"/><path class="cls-3" d="M0,199.71l72.94-25.89a186.39,186.39,0,0,0,0,51.79L0,199.71"/><path class="cls-3" d="M327.05,225.89a185.49,185.49,0,0,0,0-51.77L400,200l-72.95,25.93"/><path class="cls-3" d="M225.89,327c-8.63,24.29-17.17,48.32-25.92,73-8.72-24.59-17.24-48.63-25.83-72.84a188.84,188.84,0,0,0,51.75-.12"/><path class="cls-3" d="M341.61,341.33l-69.95-33.47c14.28-10.19,25.91-22.61,36.52-36.4l33.43,69.87"/></svg>